<svg width="290" height="87" viewBox="0 0 290 87" fill="none" xmlns="http://www.w3.org/2000/svg">
<path d="M19.688 10.5584L32.3568 8.8464L26.2792 37.4368C29.0184 37.2085 31.5293 36.0101 33.812 33.8416C36.1517 31.6731 37.9779 28.9909 39.2904 25.7952C40.6029 22.5995 41.2592 19.4608 41.2592 16.3792C41.2592 12.9552 40.3747 10.1589 38.6056 7.9904C36.8365 5.82186 34.1829 4.7376 30.6448 4.7376C23.6827 4.7376 18.2328 6.56373 14.2952 10.216C10.4147 13.8683 8.4744 18.9757 8.4744 25.5384C8.4744 27.6499 8.67413 29.1336 9.0736 29.9896C9.47307 30.7885 9.6728 31.2451 9.6728 31.3592C6.5912 31.3592 4.28 30.7315 2.7392 29.476C1.25547 28.1635 0.5136 26.0235 0.5136 23.056C0.5136 19.4037 1.99733 15.8656 4.9648 12.4416C7.98933 8.96053 11.8413 6.16427 16.5208 4.0528C21.2003 1.88426 25.8797 0.799996 30.5592 0.799996C35.0675 0.799996 38.8339 1.5704 41.8584 3.1112C44.8829 4.652 47.1085 6.7064 48.5352 9.2744C50.0189 11.7853 50.7608 14.5816 50.7608 17.6632C50.7608 21.3725 49.7336 24.9963 47.6792 28.5344C45.6819 32.0725 42.8 34.9829 39.0336 37.2656C35.2672 39.4912 30.9301 40.604 26.0224 40.604H25.5944L20.3728 65H8.0464L19.688 10.5584ZM61.5671 65.3424C57.3442 65.3424 54.0058 64.2581 51.5519 62.0896C49.0981 59.9211 47.8711 56.4971 47.8711 51.8176C47.8711 47.9371 48.6701 43.6285 50.2679 38.892C51.8658 34.1555 54.4338 30.0752 57.9719 26.6512C61.5101 23.1701 65.9613 21.4296 71.3255 21.4296C78.6301 21.4296 82.2823 25.9949 82.2823 35.1256V35.2112C82.4535 35.2683 82.7674 35.2968 83.2239 35.2968C85.1071 35.2968 87.2757 34.8117 89.7295 33.8416C92.1834 32.8144 94.409 31.5875 96.4063 30.1608L97.1767 32.472C95.5218 34.2411 93.3533 35.7533 90.6711 37.0088C88.0461 38.2072 85.1642 39.0632 82.0255 39.5768C81.569 44.7699 80.3991 49.3067 78.5159 53.1872C76.6327 57.0677 74.2074 60.0637 71.2399 62.1752C68.2725 64.2867 65.0482 65.3424 61.5671 65.3424ZM64.9911 57.6384C66.3607 57.6384 67.7303 56.868 69.0999 55.3272C70.4695 53.7293 71.6679 51.5893 72.6951 48.9072C73.7223 46.168 74.4642 43.1435 74.9207 39.8336C73.3799 39.4912 72.6095 38.2928 72.6095 36.2384C72.6095 33.8987 73.4941 32.3579 75.2631 31.616C75.149 29.7328 74.8637 28.4488 74.4071 27.764C73.9506 27.0221 73.1517 26.6512 72.0103 26.6512C70.1271 26.6512 68.301 28.0208 66.5319 30.76C64.7629 33.4992 63.3362 36.7805 62.2519 40.604C61.1677 44.4275 60.6255 47.7944 60.6255 50.7048C60.6255 53.444 60.9394 55.2987 61.5671 56.2688C62.1949 57.1819 63.3362 57.6384 64.9911 57.6384ZM92.5075 22.2H104.834L103.721 27.5072C105.661 25.7952 107.402 24.4827 108.943 23.5696C110.541 22.6565 112.253 22.2 114.079 22.2C115.905 22.2 117.332 22.8277 118.359 24.0832C119.443 25.3387 119.985 26.8509 119.985 28.62C119.985 30.2749 119.443 31.7301 118.359 32.9856C117.274 34.2411 115.762 34.8688 113.822 34.8688C112.566 34.8688 111.71 34.5835 111.254 34.0128C110.854 33.3851 110.541 32.5005 110.312 31.3592C110.141 30.6173 109.97 30.0752 109.799 29.7328C109.628 29.3904 109.314 29.2192 108.857 29.2192C107.659 29.2192 106.632 29.476 105.776 29.9896C104.977 30.4461 103.921 31.2736 102.608 32.472L95.7603 65H83.4339L92.5075 22.2ZM127.345 65.5136C124.606 65.5136 122.38 64.6576 120.668 62.9456C119.013 61.2336 118.186 58.6656 118.186 55.2416C118.186 53.8149 118.414 51.9603 118.87 49.6776L124.006 25.624H121.182L121.866 22.2H124.691L127.259 10.3872L139.928 8.6752L137.018 22.2H142.154L141.469 25.624H136.333L130.854 51.304C130.626 52.16 130.512 53.0731 130.512 54.0432C130.512 55.1845 130.769 56.012 131.282 56.5256C131.853 56.9821 132.766 57.2104 134.022 57.2104C135.676 57.2104 137.217 56.5256 138.644 55.156C140.071 53.7293 141.098 51.9032 141.726 49.6776H145.321C143.209 55.8408 140.499 60.0352 137.189 62.2608C133.879 64.4293 130.598 65.5136 127.345 65.5136ZM133.987 86.4C131.305 86.4 128.966 85.5155 126.968 83.7464C124.914 82.0344 123.887 79.8373 123.887 77.1552C123.887 74.7013 124.514 72.6755 125.77 71.0776C127.025 69.4797 128.652 68.1957 130.649 67.2256C132.646 66.3125 135.3 65.3424 138.61 64.3152L148.967 15.4376C150.109 9.9592 152.106 6.16427 154.959 4.0528C157.87 1.94133 161.066 0.8856 164.547 0.8856C167.229 0.8856 169.568 1.77013 171.566 3.5392C173.62 5.2512 174.647 7.44827 174.647 10.1304C174.647 11.4429 174.562 12.6128 174.391 13.64H170.367C170.482 12.3845 170.539 11.6141 170.539 11.3288C170.539 10.4157 170.225 9.7024 169.597 9.1888C168.969 8.6752 168.199 8.4184 167.286 8.4184C166.087 8.4184 164.918 8.96053 163.776 10.0448C162.635 11.072 161.807 12.8696 161.294 15.4376L159.839 22.2H166.087L165.488 25.624H159.154L149.31 71.848C148.168 77.3835 146.2 81.1784 143.403 83.2328C140.607 85.3443 137.468 86.4 133.987 86.4ZM132.019 78.7816C134.301 78.7816 135.928 76.556 136.898 72.1048L138.011 67.14C134.986 68.1672 132.675 69.3371 131.077 70.6496C129.422 72.0192 128.595 73.7883 128.595 75.9568C128.595 76.6416 128.937 77.2693 129.622 77.84C130.307 78.4677 131.106 78.7816 132.019 78.7816ZM177.01 65.3424C172.787 65.3424 169.449 64.2581 166.995 62.0896C164.541 59.9211 163.314 56.4971 163.314 51.8176C163.314 47.9371 164.113 43.6285 165.711 38.892C167.309 34.1555 169.877 30.0752 173.415 26.6512C176.953 23.1701 181.404 21.4296 186.768 21.4296C194.073 21.4296 197.725 25.9949 197.725 35.1256V35.2112C197.896 35.2683 198.21 35.2968 198.667 35.2968C200.55 35.2968 202.719 34.8117 205.172 33.8416C207.626 32.8144 209.852 31.5875 211.849 30.1608L212.62 32.472C210.965 34.2411 208.796 35.7533 206.114 37.0088C203.489 38.2072 200.607 39.0632 197.468 39.5768C197.012 44.7699 195.842 49.3067 193.959 53.1872C192.076 57.0677 189.65 60.0637 186.683 62.1752C183.715 64.2867 180.491 65.3424 177.01 65.3424ZM180.434 57.6384C181.804 57.6384 183.173 56.868 184.543 55.3272C185.912 53.7293 187.111 51.5893 188.138 48.9072C189.165 46.168 189.907 43.1435 190.364 39.8336C188.823 39.4912 188.052 38.2928 188.052 36.2384C188.052 33.8987 188.937 32.3579 190.706 31.616C190.592 29.7328 190.307 28.4488 189.85 27.764C189.394 27.0221 188.595 26.6512 187.453 26.6512C185.57 26.6512 183.744 28.0208 181.975 30.76C180.206 33.4992 178.779 36.7805 177.695 40.604C176.611 44.4275 176.068 47.7944 176.068 50.7048C176.068 53.444 176.382 55.2987 177.01 56.2688C177.638 57.1819 178.779 57.6384 180.434 57.6384ZM210.604 65.5136C207.865 65.5136 205.639 64.6576 203.927 62.9456C202.272 61.2336 201.445 58.6656 201.445 55.2416C201.445 53.8149 201.673 51.9603 202.13 49.6776L211.289 6.792L223.958 5.08L214.114 51.304C213.885 52.16 213.771 53.0731 213.771 54.0432C213.771 55.1845 214.028 56.012 214.542 56.5256C215.112 56.9821 216.025 57.2104 217.281 57.2104C218.936 57.2104 220.477 56.5256 221.903 55.156C223.33 53.7293 224.357 51.9032 224.985 49.6776H228.58C226.469 55.8408 223.758 60.0352 220.448 62.2608C217.138 64.4293 213.857 65.5136 210.604 65.5136ZM239.246 17.5776C237.363 17.5776 235.765 16.9213 234.452 15.6088C233.14 14.2963 232.484 12.6984 232.484 10.8152C232.484 8.932 233.14 7.33413 234.452 6.0216C235.765 4.652 237.363 3.9672 239.246 3.9672C241.129 3.9672 242.727 4.652 244.04 6.0216C245.409 7.33413 246.094 8.932 246.094 10.8152C246.094 12.6984 245.409 14.2963 244.04 15.6088C242.727 16.9213 241.129 17.5776 239.246 17.5776ZM233.425 65.5136C230.686 65.5136 228.46 64.6576 226.748 62.9456C225.093 61.2336 224.266 58.6656 224.266 55.2416C224.266 53.8149 224.494 51.9603 224.951 49.6776L230.772 22.2H243.098L236.935 51.304C236.707 52.16 236.592 53.0731 236.592 54.0432C236.592 55.1845 236.849 56.012 237.363 56.5256C237.933 56.9821 238.847 57.2104 240.102 57.2104C241.757 57.2104 243.298 56.5256 244.724 55.156C246.151 53.7293 247.178 51.9032 247.806 49.6776H251.401C249.29 55.8408 246.579 60.0352 243.269 62.2608C239.959 64.4293 236.678 65.5136 233.425 65.5136ZM260.269 65.3424C256.047 65.3424 252.708 64.2581 250.254 62.0896C247.8 59.9211 246.573 56.4971 246.573 51.8176C246.573 47.88 247.344 43.5715 248.885 38.892C250.425 34.1555 252.936 30.0752 256.417 26.6512C259.899 23.1701 264.35 21.4296 269.771 21.4296C276.505 21.4296 280.129 25.2816 280.642 32.9856C281.898 32.7003 283.011 32.0155 283.981 30.9312C284.951 29.7899 285.864 28.5059 286.72 27.0792H289.459C287.918 30.1608 286.549 32.5861 285.35 34.3552C284.152 36.0672 282.583 37.4653 280.642 38.5496C280.3 43.9139 279.187 48.6219 277.304 52.6736C275.478 56.7253 273.081 59.864 270.113 62.0896C267.146 64.2581 263.865 65.3424 260.269 65.3424ZM263.693 57.6384C265.805 57.6384 267.774 55.9264 269.6 52.5024C271.426 49.0784 272.681 44.8555 273.366 39.8336C271.997 39.32 271.312 38.036 271.312 35.9816C271.312 33.756 272.111 32.2723 273.709 31.5304C273.595 29.7043 273.281 28.4488 272.767 27.764C272.311 27.0221 271.54 26.6512 270.456 26.6512C268.573 26.6512 266.775 28.0208 265.063 30.76C263.351 33.4421 261.953 36.7235 260.869 40.604C259.841 44.4275 259.328 47.7944 259.328 50.7048C259.328 53.444 259.642 55.2987 260.269 56.2688C260.897 57.1819 262.039 57.6384 263.693 57.6384Z" fill="white"/>
</svg>
